<?xml version="1.0" encoding="utf-8"?>
<!-- Svg Vector Icons : http://www.onlinewebfonts.com/icon -->
<!DOCTYPE svg PUBLIC "-//W3C//DTD SVG 1.1//EN" "http://www.w3.org/Graphics/SVG/1.1/DTD/svg11.dtd">
<svg version="1.1" xmlns="http://www.w3.org/2000/svg" xmlns:xlink="http://www.w3.org/1999/xlink" x="0px" y="0px" viewBox="0 0 256 256" enable-background="new 0 0 256 256" xml:space="preserve">
<metadata> Svg Vector Icons : http://www.onlinewebfonts.com/icon </metadata>
<g><g><g><path stroke-width="3" fill-opacity="0" stroke="#000000"  d="M121.8,10.7c-7.5,1.6-14,5.5-20.8,12.7c-2.5,2.6-5.9,6.7-7.5,9.1c-1.6,2.4-3,4.4-3,4.5c0,0.1-2.3-0.3-4.9-0.9c-3.9-0.8-6.3-1.1-12.9-1.1c-9.7,0-13.4,0.6-19.8,3.7c-3.6,1.8-5,2.8-8.1,5.9c-3.1,3.1-4.1,4.5-5.9,8.1c-3.1,6.5-3.8,10.1-3.7,19.8c0,6.5,0.2,9,1.1,12.9c0.6,2.6,1,4.8,0.9,4.9c-0.1,0-1.7,1.2-3.6,2.4c-4.8,3.2-6.6,4.7-11,9C14.5,109.8,10,119.1,10,128c0,3.2,1.2,8.9,2.6,12.2c3.3,7.5,11.4,16.5,20,22.3c2.4,1.6,4.4,3,4.4,3c0.1,0-0.3,2.2-0.8,4.7c-1.2,6-1.7,15.9-1,21c1.2,8.6,4.1,14.6,9.5,20.1c4.2,4.2,8.8,6.8,15.2,8.6c5.4,1.5,18.6,1.5,25.5,0c2.6-0.6,4.8-1,4.9-0.9c0.1,0.1,1.4,2.1,3,4.5c5.8,8.7,15.1,17,22.5,20.1c3.5,1.4,8.8,2.5,12.2,2.5c5.5,0,12.3-2.3,18.1-5.9c5.5-3.5,14.8-13.6,18.9-20.6c0.4-0.7,0.8-0.7,5.3,0.2c4.1,0.9,6.2,1.1,13.4,1.1c7.3,0,9.1-0.2,12.2-1c12.4-3.4,20.5-11.4,23.8-23.8c0.8-3.1,1-4.9,1-12.2c0-7.1-0.2-9.3-1-13.3c-0.6-2.6-1-4.8-0.9-4.9c0.1-0.1,2.1-1.4,4.5-3c8.7-5.8,17-15.1,20.1-22.5c1.4-3.4,2.5-8.8,2.5-12.1c0-3.2-1.2-8.9-2.6-12.2c-3.3-7.5-11.4-16.5-20-22.3c-2.4-1.6-4.4-2.9-4.5-3c-0.1,0,0.3-2.3,0.9-4.9c1.5-6.9,1.5-20.1,0-25.5c-3.2-11.6-10.6-19.6-21.6-23.2c-6.9-2.2-18.6-2.5-28-0.6c-2.5,0.5-4.7,0.9-4.7,0.8c0,0-1.4-2-3-4.4c-3.8-5.7-11.1-13.2-15.8-16.4C138.4,10.7,130.3,8.9,121.8,10.7z M132.4,17.7c6.1,1.2,12.4,4.8,17.8,10.3c3.1,3.2,9,10.8,8.6,11.1c-0.1,0.1-1.6,0.6-3.4,1.2c-5.5,1.8-14.5,5.9-21.1,9.5l-6.3,3.5l-5.9-3.2c-6.4-3.5-16.4-8-21.5-9.8c-1.8-0.6-3.3-1.1-3.4-1.2c-0.1,0,0.8-1.4,1.9-3C109.2,21.9,120.8,15.5,132.4,17.7z M84.1,42.7c1.6,0.3,2.9,0.6,2.9,0.8c0,0.1-0.6,1.4-1.4,3c-3.2,6.3-7.5,18.2-9.5,25.9c-0.4,1.7-1,3.1-1.3,3.1c-0.9,0-12.7,3.7-17.3,5.4c-2.4,0.9-6.5,2.6-9.2,3.9c-2.6,1.2-4.9,2.2-4.9,2.1c-0.6-0.6-1.6-9.4-1.6-14.2c0-7.2,0.8-11.1,3.3-16.1c3.3-6.6,9.2-11.4,16.7-13.6C67,41.4,77.1,41.3,84.1,42.7z M192.3,42.5c8.2,1.6,15.1,6.8,18.6,14c2.4,5.1,3.3,8.9,3.3,16.2c0,4.8-1,13.5-1.6,14.2c-0.1,0.1-1.5-0.5-3-1.3c-6.3-3.2-18.2-7.5-25.9-9.4l-3-0.8l-0.8-3c-1.9-7.7-6.3-19.6-9.4-25.9c-0.7-1.5-1.4-2.9-1.4-3c0-0.3,8.3-1.7,11.1-1.8C184.1,41.5,188.8,41.8,192.3,42.5z M165.3,51.2c2.4,5.5,5.2,13.2,6.9,19c0.9,3,0.9,3.3,0.2,3.1c-1-0.3-14.2-2.4-17.7-2.9c-2.4-0.2-3.1-0.6-7.9-4.3c-2.9-2.2-6.8-5-8.6-6.3l-3.3-2.3l1.1-0.8c4.1-3.1,25.4-12.3,26.5-11.4C162.7,45.7,164,48.3,165.3,51.2z M100.7,47.5c5.5,2.1,17.5,7.9,19.5,9.4l1,0.8l-2.5,1.7c-1.4,0.9-5.2,3.7-8.4,6.2l-5.9,4.5l-7.1,1.1c-3.9,0.6-8.7,1.4-10.6,1.8c-1.9,0.4-3.5,0.6-3.5,0.6c0,0,0.7-2.5,1.6-5.4c2-6.8,4.3-12.8,6.8-18.3c1.6-3.4,2.2-4.3,2.9-4.3C94.8,45.5,97.7,46.4,100.7,47.5z M133.7,65.5c2.7,1.9,4.9,3.5,4.9,3.6c0,0-4.7,0.1-10.6,0.1c-5.8,0-10.6,0-10.6-0.1c0-0.4,10-7.1,10.6-7.1C128.4,62,131,63.6,133.7,65.5z M147.5,77.1c1.3,0.2,2.7,1.2,5.8,3.8c6.6,5.8,13.7,12.8,19.7,19.5l5.6,6.4l0.4,3.1c0.5,4.1,0.5,32.2,0,36.2c-0.4,3.1-0.5,3.2-4.4,7.6c-5.1,5.8-15.2,15.9-21,21c-4.4,3.9-4.5,4-7.6,4.4c-4,0.5-32.1,0.5-36.1,0c-3-0.4-3.2-0.5-7.1-3.9c-5.2-4.5-17.4-16.7-21.9-21.9c-3.4-3.9-3.5-4.1-3.9-7.1c-0.2-1.7-0.4-9.8-0.4-18.1c0-8.3,0.2-16.4,0.4-18.1c0.4-3,0.5-3.2,3.9-7.1c7.1-8.1,21.2-21.9,25.4-24.9c0.6-0.4,2.9-0.8,5.7-1.1C116.9,76.4,144.5,76.6,147.5,77.1z M86.5,86.2c-4.1,4.1-7.6,7.5-7.7,7.5c-0.1-0.1,2.1-12.4,2.3-12.6c0.1-0.1,11.7-2.3,12.5-2.4C93.9,78.6,90.7,82,86.5,86.2z M169.2,80c2.8,0.5,5.2,1.1,5.4,1.3c0.4,0.4,2.8,12.5,2.5,12.5c0,0-3.5-3.4-7.6-7.6c-5.4-5.4-7.2-7.5-6.5-7.4C163.7,79,166.4,79.5,169.2,80z M72.5,89c-0.6,3.3-1.3,8-1.6,10.5l-0.6,4.4l-4,5.3c-2.2,2.9-5,6.8-6.3,8.6l-2.3,3.3L57,120c-2.6-3.5-11.5-23.4-11.5-25.8c0-1.5,10.9-6.2,22.6-9.8c2.9-0.9,5.3-1.6,5.3-1.6C73.5,83,73,85.7,72.5,89z M194.3,86.5c6.6,2.3,15.8,6.4,16.1,7.2c0.4,1.1-2.6,8.9-6.7,17.4c-2.3,4.6-4.4,8.7-4.7,9.1c-0.6,0.8-0.8,0.6-2.9-2.5c-1.3-1.8-4.1-5.7-6.3-8.6c-3.6-4.8-4-5.4-4.3-7.9c-0.4-3.5-2.5-16.7-2.9-17.7c-0.2-0.7,0.1-0.7,3.1,0.2C187.6,84.3,191.4,85.6,194.3,86.5z M40.4,100.4c1.7,5.1,6.2,15.1,9.8,21.7l3.2,5.9l-3.2,5.9c-3.5,6.3-8,16.3-9.8,21.5c-0.6,1.8-1.1,3.3-1.2,3.4c-0.3,0.4-7.9-5.5-11.1-8.6c-11.3-11.1-13.7-23.6-6.9-35.8c1.8-3.1,4.9-7,7.8-9.6c2-1.9,9.6-7.7,10-7.7C39.2,97.1,39.8,98.6,40.4,100.4z M220,99.2c21.6,15.4,24.5,34.6,7.9,51c-3.2,3.1-10.8,9-11.1,8.6c0-0.1-0.8-2.2-1.7-4.6c-2.5-7.3-8.2-19.1-12.1-25.4c-0.4-0.7-0.4-1.1,0.1-1.9c1.8-2.9,6.2-11.3,8-15.3c2.2-4.9,5.4-13.2,5.4-14.1C216.5,96.8,216.9,97,220,99.2z M69.2,128c0,5.8,0,10.6-0.1,10.6c-0.4,0-7.1-10-7.1-10.6s6.6-10.6,7.1-10.6C69.2,117.4,69.2,122.1,69.2,128z M191.4,123.7c1.4,2,2.5,4,2.5,4.3c0,0.6-4.2,7-6.1,9.4l-1.1,1.3V128v-10.6l1.1,1.3C188.4,119.3,190,121.6,191.4,123.7z M61.5,140.2c1.8,2.5,4.5,6.2,6,8.2c2.7,3.6,2.8,3.6,3.3,8.1c0.6,4.7,2.2,14.5,2.6,15.9c0.2,0.7-0.1,0.7-3.1-0.2c-8.5-2.4-23.6-8.3-24.8-9.8c-0.8-1,5.9-17.1,10.6-25.1c0.8-1.3,1.6-2.3,1.8-2.1C58.1,135.4,59.7,137.6,61.5,140.2z M200.8,139c2.7,4.9,6.3,12.8,8.3,18.3l1.8,4.7l-1,0.6c-3.1,2-16.2,7.1-24.2,9.4c-3,0.9-3.3,0.9-3.1,0.2c0.3-1,2.4-14.2,2.9-17.7c0.3-2.4,0.6-3.1,4.3-7.9c2.2-2.9,5-6.7,6.2-8.5c1.3-1.8,2.4-3.2,2.6-3C198.8,135.4,199.8,137.1,200.8,139z M86.5,169.6c5.4,5.4,7.2,7.5,6.5,7.4c-5.1-0.8-11.2-2.1-11.6-2.4c-0.4-0.4-2.8-12.5-2.5-12.5C78.9,162.1,82.3,165.5,86.5,169.6z M177,163.1c-0.8,4.9-2.1,11.2-2.4,11.5c-0.3,0.3-6.5,1.6-11.6,2.4c-0.8,0.1,1-1.9,6.5-7.4c4.1-4.1,7.6-7.6,7.6-7.6C177.2,162.1,177.1,162.5,177,163.1z M48.3,171.2c5.9,2.8,15,6.1,21.9,8l5.2,1.4l0.8,3c1.9,7.7,6.3,19.5,9.5,25.9c0.8,1.6,1.4,3,1.3,3c-0.6,0.6-9.3,1.6-14.2,1.6c-7.2,0-11.1-0.8-16.2-3.3c-7.1-3.5-12.3-10.4-14.1-18.6c-0.9-4.4-0.9-14,0-19.2c0.4-2.3,0.8-4.1,0.9-4.1C43.5,169,45.7,170,48.3,171.2z M213.3,172.1c1,4.9,0.9,18.5-0.2,22c-2.9,9.4-9.1,15.8-18.4,18.8c-4.1,1.3-15.1,1.7-21,0.6c-2.3-0.4-4.4-0.8-4.5-0.9c-0.1,0,0.9-2.3,2.1-4.9c2.8-5.9,6.1-15,8-21.8l1.4-5.2l5.2-1.4c7-1.9,16.1-5.3,21.7-7.9c2.5-1.2,4.7-2.3,4.9-2.3C212.6,169,213,170.4,213.3,172.1z M91.6,183.9c3.9,0.6,8.3,1.3,9.8,1.5c2.4,0.3,3.1,0.6,7.9,4.3c2.9,2.2,6.7,5,8.6,6.3c3.1,2.1,3.3,2.3,2.5,2.9c-0.5,0.4-4.6,2.5-9.1,4.7c-8.5,4.1-16.3,7.1-17.4,6.7c-1.3-0.5-7.3-15.4-9.9-24.7c-0.9-3-0.9-3.3-0.2-3.1C84.1,182.7,87.7,183.3,91.6,183.9z M172.2,185.7c-2.6,9.3-8.6,24.2-9.9,24.7c-0.9,0.4-8.1-2.3-14.5-5.2c-5.4-2.5-11.8-5.9-12.5-6.6c-0.2-0.2,1.2-1.3,3-2.6c1.8-1.2,5.7-4.1,8.5-6.2l5.2-4l5.9-0.8c3.3-0.5,7.9-1.2,10.3-1.6c2.4-0.5,4.5-0.9,4.7-0.9C172.9,182.4,172.7,183.9,172.2,185.7z M138.3,187.1c-0.4,0.6-9.8,6.8-10.4,6.8c-0.6,0-10.5-6.7-10.5-7.1c0,0,4.7-0.1,10.6-0.1C133.8,186.7,138.4,186.9,138.3,187.1z M132,204.8c7.1,4.1,21.1,10.4,25.7,11.5c0.7,0.2,1.2,0.5,1.2,0.6c0,0.8-5.8,8.1-8.7,11.1c-7.5,7.6-15.7,11.2-24.1,10.6c-9.6-0.7-18.8-7-27-18.5c-1.2-1.6-2.1-3-2.1-3.2c0-0.1,0.6-0.4,1.3-0.6c4.7-1.2,22-9,27.1-12.4c1-0.6,2-1.2,2.3-1.2C128.1,202.6,129.9,203.6,132,204.8z"/><path stroke-width="3" fill-opacity="0" stroke="#000000"  d="M57.9,61.6v3.7h3.7h3.7v-3.7v-3.7h-3.7h-3.7V61.6z"/><path stroke-width="3" fill-opacity="0" stroke="#000000"  d="M190.7,61.6v3.7h3.7h3.7v-3.7v-3.7h-3.7h-3.7V61.6z"/><path stroke-width="3" fill-opacity="0" stroke="#000000"  d="M119.7,91.8c-5.3,0.8-10.7,2.6-14.1,4.6c-3.5,2.1-5.1,3.6-6.2,6c-0.9,1.8-0.9,2.6-0.8,26.1l0.1,24.2l1.4,2c4.2,6,15,9.8,27.9,9.8s23.6-3.8,27.9-9.8l1.4-2l0.1-24.2c0.1-23.5,0.1-24.3-0.8-26.1C152.7,94.4,135.3,89.3,119.7,91.8z M140.8,99.8c4.8,1.2,8.3,3.2,9,5.2c1,2.7-3,5.4-10,7.1c-5.3,1.2-18.3,1.2-23.6,0c-6.3-1.4-10.4-3.9-10.4-6.3s4.2-4.9,10.1-6.2c5.3-1.1,5.7-1.1,13.4-1C134.8,98.8,137.5,99.1,140.8,99.8z M117.4,119.5c2.7,0.6,6,0.8,10.6,0.8c7.7,0,12.4-0.8,18.3-3.1l3.8-1.5v2.9c0,3.5-0.8,4.7-4.3,6.4c-4.5,2.2-9,2.9-17.8,2.9c-8.8,0-13.3-0.7-17.8-2.9c-3.5-1.6-4.3-2.9-4.3-6.4v-2.9l3.8,1.5C111.8,118,115.2,119.1,117.4,119.5z M113.3,133.2c10.7,3.1,23.1,2.6,33-1.3l3.8-1.5v2.9c0,3.5-0.8,4.7-4.3,6.4c-4.5,2.2-9,2.9-17.8,2.9c-8.8,0-13.3-0.7-17.8-2.9c-3.5-1.6-4.3-2.9-4.3-6.5v-2.9l1.8,0.9C108.7,131.7,111.2,132.6,113.3,133.2z M117.4,149c2.7,0.6,5.9,0.8,10.6,0.8c7.7,0,12.4-0.8,18.3-3.2l3.8-1.5v2.9c0,3.5-0.8,4.7-4.3,6.4c-4.5,2.2-9,2.9-17.8,2.9c-8.8,0-13.3-0.7-17.8-2.9c-3.5-1.6-4.3-2.9-4.3-6.4v-2.9l3.8,1.5C111.8,147.5,115.2,148.6,117.4,149z"/><path stroke-width="3" fill-opacity="0" stroke="#000000"  d="M57.9,194.3v3.7h3.7h3.7v-3.7v-3.7h-3.7h-3.7V194.3z"/><path stroke-width="3" fill-opacity="0" stroke="#000000"  d="M190.7,194.3v3.7h3.7h3.7v-3.7v-3.7h-3.7h-3.7V194.3z"/></g></g></g>
</svg>