<?xml version="1.0" encoding="utf-8"?>
<!-- Svg Vector Icons : http://www.onlinewebfonts.com/icon -->
<!DOCTYPE svg PUBLIC "-//W3C//DTD SVG 1.1//EN" "http://www.w3.org/Graphics/SVG/1.1/DTD/svg11.dtd">
<svg version="1.1" xmlns="http://www.w3.org/2000/svg" xmlns:xlink="http://www.w3.org/1999/xlink" x="0px" y="0px" viewBox="0 0 256 256" enable-background="new 0 0 256 256" xml:space="preserve">
<metadata> Svg Vector Icons : http://www.onlinewebfonts.com/icon </metadata>
<g><g><g><path fill="#000000" d="M17.2,10.3c-2.4,0.7-4.5,2.4-5.8,4.5L10.1,17L10,107.4c-0.1,62.7,0,90.9,0.4,92.2c0.6,2.2,3.1,5.1,5.4,6.1c1.5,0.7,5.4,0.8,52,0.8c46.4,0,50.3,0,50.3-0.8c0-0.4,0-1.5-0.1-2.4l-0.1-1.6H83.5H49.1v-76.3V49.1l96.1,0.1l96,0.1v74c0,40.7-0.2,74.6-0.4,75.3c-0.6,2.4-2.6,3.1-8.8,3.1h-5.4l0.1,2.4l0.1,2.4l6-0.2c4.1-0.1,6.5-0.4,7.5-0.8c2.1-1,4.6-3.9,5.2-6c0.3-1.3,0.4-29.4,0.4-92.2L245.9,17l-1.3-2.2c-0.8-1.4-2-2.6-3.5-3.5l-2.2-1.3L128.7,10C68.1,9.9,17.9,10.1,17.2,10.3z M238.6,15.3c2.5,1.5,2.6,2,2.6,16v12.9H128H14.8v-13c0-12.5,0-13.1,1-14.3c0.5-0.7,1.7-1.5,2.5-1.8C20.7,14.3,237.2,14.5,238.6,15.3z M44.5,125.4v76.3h-13c-12.1,0-13.1,0-14.5-0.9c-1-0.6-1.6-1.4-1.9-2.6c-0.4-1.7-0.6-148-0.2-148.8c0.1-0.2,6.8-0.3,14.9-0.3h14.7V125.4z"/><path fill="#000000" d="M164.6,20.3c-4.3,1.1-7.6,6.1-6.9,10.5c0.7,4.7,3.8,7.7,8.4,8.4c2.6,0.4,5.4-0.6,7.6-2.5c2.4-2.1,3.1-3.9,3.1-7.2C176.9,22.9,171.2,18.6,164.6,20.3z M170.7,26.2c3.2,3.2,1.2,8.1-3.4,8.1c-4.8,0-6.8-6.3-2.8-8.8C166.9,24.1,168.9,24.3,170.7,26.2z"/><path fill="#000000" d="M192.8,20.6c-7,3.1-7.5,13.5-0.9,17.2c3.9,2.2,8.2,1.8,11.4-1.2c2.4-2.1,3.1-3.9,3.1-7.2c0-3.9-1.8-6.8-5.2-8.6C199.2,19.9,194.9,19.7,192.8,20.6z M200.2,26.2c1.8,1.8,2,3.6,0.9,5.8c-0.9,1.7-2,2.3-4.3,2.3c-4.7,0-6.6-6.4-2.7-8.8C196.4,24.1,198.4,24.3,200.2,26.2z"/><path fill="#000000" d="M222.3,20.6c-7,3.1-7.5,13.5-0.9,17.2c3.9,2.2,8.2,1.8,11.4-1.2c2.4-2.1,3.1-3.9,3.1-7.2c0-3.9-1.8-6.8-5.2-8.6C228.7,19.9,224.4,19.7,222.3,20.6z M229.8,26.2c1.8,1.8,2,3.6,0.9,5.8c-0.9,1.7-2,2.3-4.4,2.3c-1.5,0-2.2-0.3-3.3-1.3c-1.1-1.1-1.3-1.8-1.3-3.3c0-2.4,0.6-3.5,2.2-4.3C226,24.2,228,24.4,229.8,26.2z"/><path fill="#000000" d="M24.7,71.2v2.2l2.1,0.3c1.2,0.1,3.4,0.1,4.8,0l2.7-0.3v-2.2v-2.3h-4.8h-4.8V71.2z"/><path fill="#000000" d="M25.5,93.6c-0.6,0.2-0.8,0.7-0.8,2.5v2.3h4.8h4.8v-2.3v-2.3h-1.7c-1,0-2.8-0.1-4.1-0.2C27.4,93.5,25.9,93.5,25.5,93.6z"/><path fill="#000000" d="M24.7,120.6v2.3h4.8h4.8v-2.3v-2.3h-4.8h-4.8V120.6z"/><path fill="#000000" d="M24.7,145v2.2l2.1,0.3c1.2,0.1,3.4,0.1,4.8,0l2.7-0.3V145v-2.3h-4.8h-4.8V145z"/><path fill="#000000" d="M25.5,167.4c-0.6,0.2-0.8,0.7-0.8,2.5v2.3h4.8h4.8v-2.3v-2.3h-1.7c-1,0-2.8-0.1-4.1-0.2C27.4,167.3,25.9,167.3,25.5,167.4z"/><path fill="#000000" d="M71.4,84.7l-12.1,6.1v2.8v2.8l12.2,6.1l12.2,6.1v-2.8V103l-9.5-4.8l-9.6-4.8l9.6-4.8l9.5-4.8v-2.6c0-1.5,0-2.7-0.1-2.6C83.5,78.6,78,81.3,71.4,84.7z"/><path fill="#000000" d="M128,81.3v2.6l9.5,4.8l9.6,4.8l-9.6,4.8L128,103v2.8v2.8l12.2-6.1l12.2-6.1v-2.8v-2.8l-12.2-6.1L128,78.6V81.3z"/><path fill="#000000" d="M93.6,93.2c0.1,1.2,0.4,2.2,0.5,2.4c0.2,0.1,20.6,0.3,26.7,0.1l2.2,0v-2.3V91h-14.8H93.3L93.6,93.2z"/><path fill="#000000" d="M59.3,120.6v2.3h14.5h14.5v-2.3v-2.3H73.8H59.3V120.6z"/><path fill="#000000" d="M98.5,120.6v2.3h39.2h39.1l0.3-1.8c0.1-0.9,0.3-2,0.3-2.3c0-0.4-8.2-0.6-39.4-0.6H98.5V120.6z"/><path fill="#000000" d="M187,120.6v2.3h14.8h14.8v-2.3v-2.3h-14.8H187V120.6z"/><path fill="#000000" d="M62.2,138l-2.9,0.1v2.3v2.3h29.6h29.6l-0.3-2.2c-0.2-1.2-0.4-2.3-0.5-2.4C117.4,137.9,66.5,137.8,62.2,138z"/><path fill="#000000" d="M128.8,138c-0.6,0.1-0.8,0.7-0.8,2.4v2.3h24.4h24.4l0.1-1.8c0-1,0-2.1,0.1-2.4c0-0.4-6-0.5-23.8-0.6C140.3,137.9,129.2,137.9,128.8,138z"/><path fill="#000000" d="M162.6,153.3v5.4l-2.9,1.1c-1.6,0.6-3.9,1.6-5.2,2.2l-2.3,1.2l-4-4l-4-4l-6.9,6.9l-6.9,6.9l4,4l4,4.1l-1.3,2.5c-0.7,1.4-1.7,3.6-2.1,5l-0.8,2.4h-5.4h-5.4l-0.2,2.4c-0.3,3.4-0.1,16.5,0.3,16.8c0.2,0.2,2.6,0.3,5.5,0.4h5.1l1.2,3.2c0.7,1.8,1.7,4.1,2.2,5.1l1,1.8l-3.9,4l-3.9,3.9l6.2,6.2c3.4,3.4,6.6,6.5,7,6.8c0.7,0.6,1.2,0.3,4.7-3.2l3.9-3.9l3.6,1.7c2,0.9,4.2,1.8,5,2.1l1.4,0.5l0.1,5.6l0.1,5.6h9.6h9.6l0.1-5.6l0.1-5.6l1.4-0.5c0.8-0.2,3-1.2,5-2.1l3.6-1.7l3.9,3.9l3.9,3.9l6.9-6.9l6.9-6.9l-3.9-3.9l-3.9-3.9l1.1-2.1c0.6-1.2,1.6-3.4,2.1-5c1.2-3.4,1.6-3.6,7.2-3.2c2.8,0.2,4,0.1,4.4-0.3c0.6-0.6,0.6-1.2,0.4-15.9l0-3.3h-5.5h-5.5l-0.8-2.4c-0.4-1.3-1.4-3.6-2.1-5l-1.3-2.5l4-4.1l4-4l-6.9-6.9l-6.9-6.9l-4,4l-4,4l-2.3-1.2c-1.2-0.6-3.6-1.6-5.1-2.2l-2.9-1.1v-5.4v-5.5h-9.7h-9.7L162.6,153.3L162.6,153.3z M177.4,157.5l0.1,5.1l3.9,1.2c3.4,1,7.1,2.6,10.6,4.8c0.9,0.6,1.2,0.4,4.6-3l3.6-3.6l3.5,3.5l3.5,3.5l-3.6,3.6l-3.5,3.6l2,3.6c1.1,2,2.4,5.1,3,6.9c1.7,5.4,1.3,5.1,4.5,4.9c1.5,0,3.7,0,4.9,0.2l2.1,0.3v4.8v4.8h-5h-5l-1.3,4.4c-0.7,2.4-2.3,6-3.4,7.9l-2,3.6l3.6,3.6l3.6,3.6l-3.5,3.5l-3.5,3.5l-3.6-3.6l-3.6-3.6l-4.5,2.4c-2.5,1.2-6,2.7-7.8,3.2l-3.4,0.8v4.9v4.9l-3.8,0.3c-6.5,0.6-6.1,0.8-6.2-5.1l-0.1-5.1l-3.3-0.8c-1.8-0.5-5.4-1.9-7.8-3.2l-4.5-2.4l-3.6,3.6l-3.5,3.5l-3.5-3.5l-3.5-3.5l3.6-3.6l3.6-3.6l-1.3-2c-1.8-2.9-3.6-7.1-4.6-10.7l-0.8-3.1h-5h-5v-5v-5l4.9,0c2.7,0,5-0.1,5.1-0.2c0.1-0.1,0.6-1.7,1.2-3.6c0.5-1.9,1.9-5.3,3.2-7.6l2.2-4.2l-3.5-3.5l-3.6-3.5l3.5-3.5l3.5-3.5l3.6,3.6c3.4,3.3,3.7,3.6,4.6,3c3.5-2.2,7.2-3.8,10.6-4.8l3.9-1.2l0.1-5.1l0.1-5.1h5h5L177.4,157.5z"/><path fill="#000000" d="M166.5,178.1c-5.4,2-9.9,5.9-12.1,10.7c-1.1,2.4-1.2,3.2-1.2,7.9c0,5.3,0,5.4,1.8,8.9c7.2,14.6,28,14.4,35.1-0.4c1.4-3,1.5-3.4,1.5-8.4c0-5.1,0-5.4-1.6-8.4c-1.9-3.9-5.5-7.3-9.6-9.3c-2.7-1.2-3.8-1.5-7.3-1.6C169.9,177.3,168.2,177.5,166.5,178.1z M178.4,183.4c1.4,0.6,3.4,2,4.4,3c7.2,7.4,4.8,19.6-4.5,23.8c-2.5,1.2-3.3,1.3-6.6,1.1c-4.5-0.2-7.3-1.4-10-4.3c-2.6-2.9-3.8-5.5-4.1-9C156.8,186.7,168.1,178.7,178.4,183.4z"/></g></g></g>
</svg>